<svg width="60" height="28" viewBox="0 0 60 28" fill="none" xmlns="http://www.w3.org/2000/svg">
<g clip-path="url(#clip0_9096_47913)">
<path fill-rule="evenodd" clip-rule="evenodd" d="M9.72559 5.65625C10.8158 5.65629 11.8226 5.84214 12.7461 6.21408C13.6696 6.58605 14.4714 7.10552 15.1512 7.77248C15.8439 8.4395 16.3764 9.22216 16.7484 10.1201C17.1331 11.0178 17.3249 11.9926 17.325 13.0443C17.325 14.0961 17.1332 15.0717 16.7484 15.9697C16.3636 16.8674 15.825 17.6563 15.1324 18.336C14.8544 18.6088 14.554 18.8548 14.2352 19.0782L15.9017 21.9531H12.7649L11.7643 20.2057C11.1183 20.3688 10.4391 20.4522 9.72559 20.4523C8.64815 20.4523 7.6474 20.2664 6.72387 19.8944C5.8003 19.5224 4.99146 19.0031 4.29878 18.336C3.61915 17.6563 3.08755 16.8673 2.7028 15.9697C2.31797 15.0717 2.125 14.0961 2.125 13.0443C2.12506 11.9926 2.3109 11.0178 2.68283 10.1201C3.06765 9.22217 3.60015 8.4395 4.27999 7.77248C4.97255 7.10561 5.78054 6.58604 6.70391 6.21408C7.62748 5.84209 8.63526 5.65625 9.72559 5.65625ZM9.72559 8.35028C9.07139 8.35028 8.46148 8.46583 7.89708 8.69672C7.34564 8.91478 6.85819 9.23532 6.43498 9.65854C6.01171 10.0818 5.68407 10.5822 5.45319 11.1594C5.22246 11.7236 5.10799 12.352 5.10793 13.0443C5.10793 13.7367 5.22248 14.3721 5.45319 14.9491C5.68404 15.5262 6.0118 16.0267 6.43498 16.45C6.85827 16.8604 7.34552 17.1821 7.89708 17.413C8.46148 17.6439 9.07139 17.7594 9.72559 17.7594C9.93693 17.7594 10.1427 17.7448 10.3433 17.7207L8.49367 14.4876H11.5729L12.8154 16.6308C12.8833 16.5723 12.9504 16.5127 13.015 16.45C13.4383 16.0267 13.7659 15.5263 13.9968 14.9491C14.2276 14.372 14.3433 13.7368 14.3433 13.0443C14.3432 12.3519 14.2276 11.7236 13.9968 11.1594C13.7659 10.5822 13.4383 10.0818 13.015 9.65854C12.5918 9.23539 12.0983 8.91476 11.5341 8.69672C10.9827 8.46587 10.3796 8.35032 9.72559 8.35028Z" fill="#4F46E5"/>
<path fill-rule="evenodd" clip-rule="evenodd" d="M33.5667 9.4859C34.4005 9.4859 35.139 9.62052 35.7804 9.88989C36.4214 10.1464 36.9604 10.5112 37.3963 10.9856C37.8452 11.4601 38.1848 12.012 38.4157 12.6403C38.6466 13.256 38.7621 13.9302 38.7621 14.6614C38.7621 14.8665 38.749 15.0716 38.7234 15.2768C38.7106 15.4692 38.6784 15.636 38.6271 15.7771H31.2708C31.3052 16.0459 31.3713 16.2961 31.4704 16.5275C31.6628 16.9763 31.9572 17.3291 32.3547 17.5856C32.7524 17.8293 33.2336 17.9508 33.798 17.9508C34.3111 17.9508 34.7471 17.8484 35.1063 17.6432C35.4783 17.4379 35.7666 17.1556 35.9718 16.7964L38.2807 17.8933C38.0754 18.4063 37.7489 18.8555 37.3 19.2403C36.864 19.6251 36.3444 19.9265 35.7416 20.1446C35.1388 20.3498 34.4776 20.4523 33.7593 20.4523C32.6434 20.4522 31.6748 20.2092 30.8539 19.7218C30.033 19.2215 29.398 18.5544 28.949 17.7207C28.5001 16.887 28.2762 15.9635 28.2761 14.9503C28.2761 13.8985 28.5072 12.961 28.969 12.14C29.4436 11.3194 30.0787 10.6721 30.8738 10.1976C31.669 9.72311 32.5664 9.48597 33.5667 9.4859ZM33.5667 11.7947C33.0667 11.7948 32.6374 11.9164 32.2784 12.16C31.9194 12.4036 31.65 12.7626 31.4704 13.2369C31.4201 13.3699 31.3791 13.5117 31.3459 13.6608H35.7041C35.6875 13.4993 35.6553 13.3455 35.6066 13.1993C35.4655 12.7632 35.2153 12.4225 34.8562 12.1788C34.5099 11.9223 34.0797 11.7947 33.5667 11.7947Z" fill="#4F46E5"/>
<path fill-rule="evenodd" clip-rule="evenodd" d="M53.0978 9.4859C54.1368 9.4859 55.0803 9.72297 55.9269 10.1976C56.7732 10.6721 57.4467 11.3194 57.9468 12.14C58.4599 12.961 58.716 13.9044 58.716 14.9691C58.716 16.0208 58.4598 16.9633 57.9468 17.797C57.4466 18.6178 56.7733 19.266 55.9269 19.7406C55.0803 20.2152 54.1368 20.4523 53.0978 20.4523C52.0589 20.4522 51.1093 20.2152 50.2499 19.7406C49.4036 19.266 48.7242 18.6178 48.2112 17.797C47.711 16.9633 47.4608 16.0208 47.4608 14.9691C47.4608 13.9044 47.7109 12.961 48.2112 12.14C48.7242 11.3195 49.4038 10.6721 50.2499 10.1976C51.1093 9.72302 52.0589 9.48596 53.0978 9.4859ZM53.0978 12.0825C52.5722 12.0825 52.1107 12.2113 51.7132 12.4677C51.3157 12.7113 51.0011 13.0511 50.7702 13.487C50.5521 13.9103 50.4425 14.4047 50.4425 14.9691C50.4425 15.5335 50.5521 16.0338 50.7702 16.4699C51.0011 16.906 51.3156 17.2456 51.7132 17.4893C52.1107 17.7329 52.5721 17.8557 53.0978 17.8557C53.6237 17.8557 54.08 17.733 54.4648 17.4893C54.8622 17.2456 55.1699 16.9058 55.3879 16.4699C55.6187 16.0338 55.7343 15.5335 55.7343 14.9691C55.7343 14.4047 55.6187 13.9103 55.3879 13.487C55.1699 13.0512 54.8622 12.7113 54.4648 12.4677C54.08 12.2111 53.6237 12.0825 53.0978 12.0825Z" fill="#4F46E5"/>
<path d="M27.4059 12.0249L22.3831 17.7207H27.4259V20.2221H18.382V17.9133L23.5516 12.2175H18.6321V9.71608H27.4059V12.0249Z" fill="#4F46E5"/>
<path d="M46.6188 12.1024H45.7145C45.009 12.1024 44.4384 12.3204 44.0022 12.7566C43.5662 13.1799 43.3481 13.7827 43.3481 14.5651V20.2221H40.4615V9.71608H43.1555V11.2839C43.3848 10.7166 43.6989 10.3153 44.0985 10.0813C44.6372 9.76077 45.2724 9.60099 46.0034 9.60099H46.6188V12.1024Z" fill="#4F46E5"/>
<path d="M64.7265 20.2221H61.8411V17.3355H64.7265V20.2221Z" fill="#4F46E5"/>
<path fill-rule="evenodd" clip-rule="evenodd" d="M81.0856 20.2221H77.8338L76.872 17.2967H71.619L70.6572 20.2221H67.4241L72.2731 5.8876H76.2366L81.0856 20.2221ZM72.4469 14.699H76.044L74.2531 9.16765L72.4469 14.699Z" fill="#4F46E5"/>
<path d="M85.25 20.2221H82.3634V9.71608H85.25V20.2221Z" fill="#4F46E5"/>
<path d="M85.25 8.77306H82.3634V5.8876H85.25V8.77306Z" fill="#4F46E5"/>
</g>
<defs>
<clipPath id="clip0_9096_47913">
<rect width="60" height="28" fill="white"/>
</clipPath>
</defs>
</svg>
